<svg xmlns="http://www.w3.org/2000/svg" viewBox="0 0 800 300">
  <rect width="800" height="300" fill="#E8EAF6"/>
  <rect x="60" y="80" width="300" height="180" rx="14" fill="#fff"/>
  <rect x="60" y="80" width="300" height="44" rx="14" fill="#3949AB"/>
  <rect x="60" y="106" width="300" height="18" fill="#3949AB"/>
  <circle cx="90" cy="102" r="6" fill="#EF5350"/><circle cx="112" cy="102" r="6" fill="#FFCA28"/><circle cx="134" cy="102" r="6" fill="#66BB6A"/>
  <rect x="90" y="150" width="240" height="14" rx="7" fill="#C5CAE9"/>
  <rect x="90" y="180" width="180" height="14" rx="7" fill="#E8EAF6"/>
  <rect x="90" y="210" width="210" height="14" rx="7" fill="#E8EAF6"/>
  <g transform="translate(480 70)">
    <rect x="0" y="20" width="240" height="160" rx="16" fill="#3949AB"/>
    <circle cx="120" cy="100" r="52" fill="#283593"/><circle cx="120" cy="100" r="36" fill="#5C6BC0"/><circle cx="120" cy="100" r="20" fill="#9FA8DA"/><circle cx="120" cy="100" r="8" fill="#E8EAF6"/>
    <rect x="40" y="8" width="60" height="14" rx="7" fill="#283593"/><rect x="140" y="8" width="60" height="14" rx="7" fill="#283593"/>
    <rect x="96" y="-6" width="48" height="20" rx="8" fill="#FFCA28"/>
  </g>
  <g transform="translate(430 190)">
    <rect x="0" y="0" width="90" height="60" rx="10" fill="#fff"/>
    <rect x="12" y="14" width="40" height="32" rx="6" fill="#9FA8DA"/>
    <circle cx="66" cy="46" r="10" fill="#FFCA28"/><rect x="62" y="52" width="8" height="14" fill="#F9A825"/>
    <path d="M8 10 L44 44 M44 10 L8 44" stroke="#5C6BC0" stroke-width="4"/>
  </g>
</svg>
