<svg xmlns="http://www.w3.org/2000/svg" viewBox="0 0 800 300">
  <rect width="800" height="300" fill="#E0F2E9"/>
  <path d="M120 70 h240 q26 0 26 26 v70 q0 26 -26 26 h-150 l-40 40 v-40 h-50 q-26 0 -26 -26 v-70 q0 -26 26 -26 Z" fill="#2E7D32"/>
  <rect x="160" y="100" width="150" height="13" rx="6.5" fill="#A5D6A7"/>
  <rect x="160" y="130" width="190" height="13" rx="6.5" fill="#A5D6A7"/>
  <rect x="160" y="160" width="110" height="13" rx="6.5" fill="#C8E6C9"/>
  <path d="M640 110 h-190 q-24 0 -24 24 v62 q0 24 24 24 h130 l38 38 v-38 h22 q24 0 24 -24 v-62 q0 -24 -24 -24 Z" fill="#fff"/>
  <rect x="470" y="140" width="140" height="12" rx="6" fill="#C8E6C9"/>
  <rect x="470" y="168" width="170" height="12" rx="6" fill="#C8E6C9"/>
  <circle cx="690" cy="170" r="26" fill="#A5D6A7"/>
  <path d="M678 176 q12 10 24 0" stroke="#1B5E20" stroke-width="4" fill="none"/>
  <circle cx="681" cy="164" r="4" fill="#1B5E20"/><circle cx="699" cy="164" r="4" fill="#1B5E20"/>
  <path d="M330 240 q10 26 -8 44 q26 -6 32 -34 Z" fill="#2E7D32"/>
</svg>
