<svg xmlns="http://www.w3.org/2000/svg" viewBox="0 0 1080 600"><defs><linearGradient id="ob" x1="0" y1="0" x2="0" y2="1"><stop offset="0" stop-color="#E8F5E9"/><stop offset="1" stop-color="#C8E6C9"/></linearGradient><linearGradient id="ob_h" x1="0" y1="0" x2="0" y2="1"><stop offset="0" stop-color="#A5D6A7"/><stop offset="1" stop-color="#66BB6A"/></linearGradient></defs><rect x="0" y="0" width="1080" height="600" fill="url(#ob)"/><path d="M0 480 Q270 380 540 460 Q810 540 1080 440 L1080 600 L0 600 Z" fill="url(#ob_h)"/><g transform="translate(540,380)"><path d="M0 60 q-4 -80 30 -120 q10 -14 24 -20 l4 14 q-20 20 -28 48 q-14 40 -6 78 Z" fill="#43A047"/><path d="M4 60 q4 -70 -30 -110 q-10 -12 -22 -18 l-6 14 q18 20 26 46 q14 40 6 68 Z" fill="#66BB6A"/><ellipse cx="0" cy="70" rx="50" ry="10" fill="#33691E" opacity=.3/></g><g font-family="Arial" font-weight="bold"><g transform="translate(120,100)"><rect width="160" height="44" rx="22" fill="#fff" opacity=".92"/><text x="80" y="30" font-size="24" fill="#2E7D32" text-anchor="middle">dolphin 🐬</text></g><g transform="translate(700,70)"><rect width="180" height="44" rx="22" fill="#fff" opacity=".92"/><text x="90" y="30" font-size="24" fill="#2E7D32" text-anchor="middle">explore 🧭</text></g><g transform="translate(200,280)"><rect width="190" height="44" rx="22" fill="#fff" opacity=".92"/><text x="95" y="30" font-size="24" fill="#2E7D32" text-anchor="middle">connect 🔗</text></g><g transform="translate(740,260)"><rect width="210" height="44" rx="22" fill="#fff" opacity=".92"/><text x="105" y="30" font-size="24" fill="#2E7D32" text-anchor="middle">treasure 💎</text></g><g transform="translate(440,50)"><rect width="200" height="44" rx="22" fill="#FFD54F" opacity=".92"/><text x="100" y="30" font-size="24" fill="#1B5E20" text-anchor="middle">speak up! 🎤</text></g></g><circle cx="80" cy="560" r="6" fill="#66BB6A" opacity=.5/><circle cx="1000" cy="540" r="8" fill="#A5D6A7" opacity=.4/></svg>